{
  "accessors": [
    {
      "bufferView": 2,
      "componentType": 5126,
      "count": 5064,
      "max": [
        12.067163467407227,
        7.894766807556152,
        2.869696855545044
      ],
      "min": [
        -1.6071850061416626,
        -7.4025349617004395,
        -3.862539529800415
      ],
      "type": "VEC3"
    },
    {
      "bufferView": 2,
      "byteOffset": 60768,
      "componentType": 5126,
      "count": 5064,
      "max": [
        0.9999327063560486,
        0.9999994039535522,
        0.9997805953025818
      ],
      "min": [
        -0.9999327063560486,
        -0.9999994039535522,
        -0.9974086880683899
      ],
      "type": "VEC3"
    },
    {
      "bufferView": 1,
      "componentType": 5126,
      "count": 5064,
      "max": [
        0.9967252612113953,
        0.7134590148925781
      ],
      "min": [
        0.0016977116465568542,
        0.49384331703186035
      ],
      "type": "VEC2"
    },
    {
      "bufferView": 0,
      "componentType": 5125,
      "count": 28416,
      "type": "SCALAR"
    },
    {
      "bufferView": 2,
      "byteOffset": 121536,
      "componentType": 5126,
      "count": 5064,
      "max": [
        12.207154273986816,
        8.034104347229004,
        3.0096662044525146
      ],
      "min": [
        -1.7471755743026733,
        -7.541872024536133,
        -4.002176284790039
      ],
      "type": "VEC3"
    },
    {
      "bufferView": 2,
      "byteOffset": 182304,
      "componentType": 5126,
      "count": 5064,
      "max": [
        0.9999338984489441,
        0.9999992847442627,
        0.9968001842498779
      ],
      "min": [
        -0.9999338984489441,
        -0.9999992847442627,
        -0.9997956156730652
      ],
      "type": "VEC3"
    },
    {
      "bufferView": 1,
      "byteOffset": 40512,
      "componentType": 5126,
      "count": 5064,
      "max": [
        0.21478456258773804,
        0.05595552921295166
      ],
      "min": [
        0.08781653642654419,
        0.027775287628173828
      ],
      "type": "VEC2"
    },
    {
      "bufferView": 0,
      "byteOffset": 113664,
      "componentType": 5125,
      "count": 28416,
      "type": "SCALAR"
    },
    {
      "bufferView": 2,
      "byteOffset": 243072,
      "componentType": 5126,
      "count": 817,
      "max": [
        2.1619527339935303,
        0.8670521974563599,
        1.2357804775238037
      ],
      "min": [
        -2.160661220550537,
        -0.9848271608352661,
        -1.2357802391052246
      ],
      "type": "VEC3"
    },
    {
      "bufferView": 2,
      "byteOffset": 252876,
      "componentType": 5126,
      "count": 817,
      "max": [
        0.9977532625198364,
        0.6139264702796936,
        0.9999825954437256
      ],
      "min": [
        -0.9981498718261719,
        -1.0,
        -0.9999825954437256
      ],
      "type": "VEC3"
    },
    {
      "bufferView": 1,
      "byteOffset": 81024,
      "componentType": 5126,
      "count": 817,
      "max": [
        0.2623656392097473,
        0.9877432584762573
      ],
      "min": [
        0.014118239283561707,
        0.815187394618988
      ],
      "type": "VEC2"
    },
    {
      "bufferView": 0,
      "byteOffset": 227328,
      "componentType": 5125,
      "count": 4608,
      "type": "SCALAR"
    },
    {
      "bufferView": 2,
      "byteOffset": 262680,
      "componentType": 5126,
      "count": 817,
      "max": [
        2.261728286743164,
        0.9284455180168152,
        1.3357679843902588
      ],
      "min": [
        -2.2604761123657227,
        -1.0816620588302612,
        -1.3357677459716797
      ],
      "type": "VEC3"
    },
    {
      "bufferView": 2,
      "byteOffset": 272484,
      "componentType": 5126,
      "count": 817,
      "max": [
        0.997153639793396,
        1.0,
        0.999949038028717
      ],
      "min": [
        -0.9966816902160645,
        -0.6150723099708557,
        -0.999949038028717
      ],
      "type": "VEC3"
    },
    {
      "bufferView": 1,
      "byteOffset": 87560,
      "componentType": 5126,
      "count": 817,
      "max": [
        0.2623656392097473,
        0.9877432584762573
      ],
      "min": [
        0.014118239283561707,
        0.815187394618988
      ],
      "type": "VEC2"
    },
    {
      "bufferView": 0,
      "byteOffset": 245760,
      "componentType": 5125,
      "count": 4608,
      "type": "SCALAR"
    },
    {
      "bufferView": 2,
      "byteOffset": 282288,
      "componentType": 5126,
      "count": 192,
      "max": [
        1.9913157224655151,
        0.067881740629673,
        0.9063354730606079
      ],
      "min": [
        -1.9883679151535034,
        -0.2797645330429077,
        -0.9063355326652527
      ],
      "type": "VEC3"
    },
    {
      "bufferView": 2,
      "byteOffset": 284592,
      "componentType": 5126,
      "count": 192,
      "max": [
        0.9877735376358032,
        0.7082059383392334,
        0.9877735376358032
      ],
      "min": [
        -0.9894617795944214,
        -1.0,
        -0.9877735376358032
      ],
      "type": "VEC3"
    },
    {
      "bufferView": 1,
      "byteOffset": 94096,
      "componentType": 5126,
      "count": 192,
      "max": [
        0.9526302814483643,
        0.9770058989524841
      ],
      "min": [
        0.11408793926239014,
        0.010050296783447266
      ],
      "type": "VEC2"
    },
    {
      "bufferView": 0,
      "byteOffset": 264192,
      "componentType": 5125,
      "count": 864,
      "type": "SCALAR"
    },
    {
      "bufferView": 2,
      "byteOffset": 286896,
      "componentType": 5126,
      "count": 192,
      "max": [
        2.0703370571136475,
        0.12278424203395844,
        0.9828889966011047
      ],
      "min": [
        -2.0675246715545654,
        -0.35976454615592957,
        -0.9828890562057495
      ],
      "type": "VEC3"
    },
    {
      "bufferView": 2,
      "byteOffset": 289200,
      "componentType": 5126,
      "count": 192,
      "max": [
        0.9865261316299438,
        1.0,
        0.9920423626899719
      ],
      "min": [
        -0.9846382737159729,
        -0.7072067856788635,
        -0.9920423626899719
      ],
      "type": "VEC3"
    },
    {
      "bufferView": 1,
      "byteOffset": 95632,
      "componentType": 5126,
      "count": 192,
      "max": [
        0.9526302814483643,
        0.9770058989524841
      ],
      "min": [
        0.11408793926239014,
        0.010050296783447266
      ],
      "type": "VEC2"
    },
    {
      "bufferView": 0,
      "byteOffset": 267648,
      "componentType": 5125,
      "count": 864,
      "type": "SCALAR"
    },
    {
      "bufferView": 2,
      "byteOffset": 291504,
      "componentType": 5126,
      "count": 456,
      "max": [
        0.8486462831497192,
        0.8441450595855713,
        0.9166667461395264
      ],
      "min": [
        -0.848646342754364,
        -0.9308896064758301,
        -0.9166667461395264
      ],
      "type": "VEC3"
    },
    {
      "bufferView": 2,
      "byteOffset": 296976,
      "componentType": 5126,
      "count": 456,
      "max": [
        0.9977665543556213,
        1.0,
        0.999998927116394
      ],
      "min": [
        -0.9977665543556213,
        -1.0,
        -0.999998927116394
      ],
      "type": "VEC3"
    },
    {
      "bufferView": 1,
      "byteOffset": 97168,
      "componentType": 5126,
      "count": 456,
      "max": [
        0.9660441875457764,
        0.980999231338501
      ],
      "min": [
        0.02051538974046707,
        0.008918821811676025
      ],
      "type": "VEC2"
    },
    {
      "bufferView": 0,
      "byteOffset": 271104,
      "componentType": 5125,
      "count": 2112,
      "type": "SCALAR"
    },
    {
      "bufferView": 2,
      "byteOffset": 302448,
      "componentType": 5126,
      "count": 474,
      "max": [
        0.8984394073486328,
        0.8941450715065002,
        0.9666666984558105
      ],
      "min": [
        -0.8984394669532776,
        -0.980889618396759,
        -0.9666666984558105
      ],
      "type": "VEC3"
    },
    {
      "bufferView": 2,
      "byteOffset": 308136,
      "componentType": 5126,
      "count": 474,
      "max": [
        0.9978592991828918,
        1.0,
        0.9999980926513672
      ],
      "min": [
        -0.9978592991828918,
        -1.0,
        -0.9999980926513672
      ],
      "type": "VEC3"
    },
    {
      "bufferView": 1,
      "byteOffset": 100816,
      "componentType": 5126,
      "count": 474,
      "max": [
        0.9660441875457764,
        0.980999231338501
      ],
      "min": [
        0.2807618975639343,
        0.008918821811676025
      ],
      "type": "VEC2"
    },
    {
      "bufferView": 0,
      "byteOffset": 279552,
      "componentType": 5125,
      "count": 2112,
      "type": "SCALAR"
    },
    {
      "bufferView": 2,
      "byteOffset": 313824,
      "componentType": 5126,
      "count": 168,
      "max": [
        1.0,
        0.30307459831237793,
        1.001479148864746
      ],
      "min": [
        -1.0,
        0.020616993308067322,
        -1.0
      ],
      "type": "VEC3"
    },
    {
      "bufferView": 2,
      "byteOffset": 315840,
      "componentType": 5126,
      "count": 168,
      "max": [
        0.8908386826515198,
        0.949787437915802,
        0.889269232749939
      ],
      "min": [
        -0.8908386826515198,
        -0.6882104873657227,
        -0.8923779129981995
      ],
      "type": "VEC3"
    },
    {
      "bufferView": 1,
      "byteOffset": 104608,
      "componentType": 5126,
      "count": 168,
      "max": [
        0.95707106590271,
        0.9880487322807312
      ],
      "min": [
        0.30540379881858826,
        0.12039494514465332
      ],
      "type": "VEC2"
    },
    {
      "bufferView": 0,
      "byteOffset": 288000,
      "componentType": 5125,
      "count": 564,
      "type": "SCALAR"
    },
    {
      "bufferView": 2,
      "byteOffset": 317856,
      "componentType": 5126,
      "count": 168,
      "max": [
        1.106900691986084,
        0.4170478880405426,
        1.1067142486572266
      ],
      "min": [
        -1.106900691986084,
        -0.0619639977812767,
        -1.1070858240127563
      ],
      "type": "VEC3"
    },
    {
      "bufferView": 2,
      "byteOffset": 319872,
      "componentType": 5126,
      "count": 168,
      "max": [
        0.9124372005462646,
        0.7076066136360168,
        0.9137332439422607
      ],
      "min": [
        -0.9124372005462646,
        -0.941897988319397,
        -0.9111321568489075
      ],
      "type": "VEC3"
    },
    {
      "bufferView": 1,
      "byteOffset": 105952,
      "componentType": 5126,
      "count": 168,
      "max": [
        0.9274576902389526,
        0.9893627166748047
      ],
      "min": [
        0.03327536582946777,
        0.43416184186935425
      ],
      "type": "VEC2"
    },
    {
      "bufferView": 0,
      "byteOffset": 290256,
      "componentType": 5125,
      "count": 564,
      "type": "SCALAR"
    },
    {
      "bufferView": 2,
      "byteOffset": 321888,
      "componentType": 5126,
      "count": 168,
      "max": [
        1.0,
        0.30307459831237793,
        1.0
      ],
      "min": [
        -1.0005537271499634,
        0.0753355622291565,
        -1.017380952835083
      ],
      "type": "VEC3"
    },
    {
      "bufferView": 2,
      "byteOffset": 323904,
      "componentType": 5126,
      "count": 168,
      "max": [
        0.8917649984359741,
        0.949787437915802,
        0.9137332439422607
      ],
      "min": [
        -0.8902215957641602,
        -0.7236097455024719,
        -0.8652802109718323
      ],
      "type": "VEC3"
    },
    {
      "bufferView": 1,
      "byteOffset": 107296,
      "componentType": 5126,
      "count": 168,
      "max": [
        0.9631984233856201,
        0.9789855480194092
      ],
      "min": [
        0.021287918090820313,
        0.12576746940612793
      ],
      "type": "VEC2"
    },
    {
      "bufferView": 0,
      "byteOffset": 292512,
      "componentType": 5125,
      "count": 564,
      "type": "SCALAR"
    },
    {
      "bufferView": 2,
      "byteOffset": 325920,
      "componentType": 5126,
      "count": 168,
      "max": [
        1.142682671546936,
        0.45503902435302734,
        1.14619779586792
      ],
      "min": [
        -1.1424347162246704,
        -0.04044298082590103,
        -1.1395033597946167
      ],
      "type": "VEC3"
    },
    {
      "bufferView": 2,
      "byteOffset": 327936,
      "componentType": 5126,
      "count": 168,
      "max": [
        0.9174718856811523,
        0.741571307182312,
        0.8986271619796753
      ],
      "min": [
        -0.9186275601387024,
        -0.9429977536201477,
        -0.9353641271591187
      ],
      "type": "VEC3"
    },
    {
      "bufferView": 1,
      "byteOffset": 108640,
      "componentType": 5126,
      "count": 168,
      "max": [
        0.8127630949020386,
        0.9789855480194092
      ],
      "min": [
        0.03327536582946777,
        0.4934525489807129
      ],
      "type": "VEC2"
    },
    {
      "bufferView": 0,
      "byteOffset": 294768,
      "componentType": 5125,
      "count": 564,
      "type": "SCALAR"
    }
  ],
  "asset": {
    "extras": {
      "author": "musthe_1 (https://sketchfab.com/gbashir2007)",
      "license": "SKETCHFAB Standard (https://sketchfab.com/licenses)",
      "source": "https://sketchfab.com/3d-models/3d-toon-shaded-rocket-8128f01723444678a6a537b9fb55e1eb",
      "title": "3D Toon Shaded Rocket"
    },
    "generator": "Sketchfab-16.65.0",
    "version": "2.0"
  },
  "bufferViews": [
    {
      "buffer": 0,
      "byteLength": 297024,
      "name": "floatBufferViews",
      "target": 34963
    },
    {
      "buffer": 0,
      "byteLength": 109984,
      "byteOffset": 297024,
      "byteStride": 8,
      "name": "floatBufferViews",
      "target": 34962
    },
    {
      "buffer": 0,
      "byteLength": 329952,
      "byteOffset": 407008,
      "byteStride": 12,
      "name": "floatBufferViews",
      "target": 34962
    }
  ],
  "buffers": [
    {
      "byteLength": 736960,
      "uri": "scene.bin"
    }
  ],
  "extensionsUsed": [
    "KHR_materials_unlit"
  ],
  "images": [
    {
      "uri": "textures/Rocket_baseColor.png"
    },
    {
      "uri": "textures/Outline.001_baseColor.png"
    },
    {
      "uri": "textures/Toon_Shader_baseColor.png"
    },
    {
      "uri": "textures/Window_baseColor.png"
    }
  ],
  "materials": [
    {
      "doubleSided": true,
      "extensions": {
        "KHR_materials_unlit": {}
      },
      "name": "Rocket",
      "pbrMetallicRoughness": {
        "baseColorTexture": {
          "index": 0
        },
        "metallicFactor": 0.0
      }
    },
    {
      "extensions": {
        "KHR_materials_unlit": {}
      },
      "name": "Outline.001",
      "pbrMetallicRoughness": {
        "baseColorTexture": {
          "index": 1
        },
        "metallicFactor": 0.0
      }
    },
    {
      "doubleSided": true,
      "extensions": {
        "KHR_materials_unlit": {}
      },
      "name": "Toon_Shader",
      "pbrMetallicRoughness": {
        "baseColorTexture": {
          "index": 2
        },
        "metallicFactor": 0.0
      }
    },
    {
      "doubleSided": true,
      "extensions": {
        "KHR_materials_unlit": {}
      },
      "name": "Window",
      "pbrMetallicRoughness": {
        "baseColorTexture": {
          "index": 3
        },
        "metallicFactor": 0.0
      }
    }
  ],
  "meshes": [
    {
      "name": "Object_0",
      "primitives": [
        {
          "attributes": {
            "NORMAL": 1,
            "POSITION": 0,
            "TEXCOORD_0": 2
          },
          "indices": 3,
          "material": 0,
          "mode": 4
        }
      ]
    },
    {
      "name": "Object_1",
      "primitives": [
        {
          "attributes": {
            "NORMAL": 5,
            "POSITION": 4,
            "TEXCOORD_0": 6
          },
          "indices": 7,
          "material": 1,
          "mode": 4
        }
      ]
    },
    {
      "name": "Object_2",
      "primitives": [
        {
          "attributes": {
            "NORMAL": 9,
            "POSITION": 8,
            "TEXCOORD_0": 10
          },
          "indices": 11,
          "material": 2,
          "mode": 4
        }
      ]
    },
    {
      "name": "Object_3",
      "primitives": [
        {
          "attributes": {
            "NORMAL": 13,
            "POSITION": 12,
            "TEXCOORD_0": 14
          },
          "indices": 15,
          "material": 1,
          "mode": 4
        }
      ]
    },
    {
      "name": "Object_4",
      "primitives": [
        {
          "attributes": {
            "NORMAL": 17,
            "POSITION": 16,
            "TEXCOORD_0": 18
          },
          "indices": 19,
          "material": 2,
          "mode": 4
        }
      ]
    },
    {
      "name": "Object_5",
      "primitives": [
        {
          "attributes": {
            "NORMAL": 21,
            "POSITION": 20,
            "TEXCOORD_0": 22
          },
          "indices": 23,
          "material": 1,
          "mode": 4
        }
      ]
    },
    {
      "name": "Object_6",
      "primitives": [
        {
          "attributes": {
            "NORMAL": 25,
            "POSITION": 24,
            "TEXCOORD_0": 26
          },
          "indices": 27,
          "material": 2,
          "mode": 4
        }
      ]
    },
    {
      "name": "Object_7",
      "primitives": [
        {
          "attributes": {
            "NORMAL": 29,
            "POSITION": 28,
            "TEXCOORD_0": 30
          },
          "indices": 31,
          "material": 1,
          "mode": 4
        }
      ]
    },
    {
      "name": "Object_8",
      "primitives": [
        {
          "attributes": {
            "NORMAL": 33,
            "POSITION": 32,
            "TEXCOORD_0": 34
          },
          "indices": 35,
          "material": 3,
          "mode": 4
        }
      ]
    },
    {
      "name": "Object_9",
      "primitives": [
        {
          "attributes": {
            "NORMAL": 37,
            "POSITION": 36,
            "TEXCOORD_0": 38
          },
          "indices": 39,
          "material": 1,
          "mode": 4
        }
      ]
    },
    {
      "name": "Object_10",
      "primitives": [
        {
          "attributes": {
            "NORMAL": 41,
            "POSITION": 40,
            "TEXCOORD_0": 42
          },
          "indices": 43,
          "material": 3,
          "mode": 4
        }
      ]
    },
    {
      "name": "Object_11",
      "primitives": [
        {
          "attributes": {
            "NORMAL": 45,
            "POSITION": 44,
            "TEXCOORD_0": 46
          },
          "indices": 47,
          "material": 1,
          "mode": 4
        }
      ]
    }
  ],
  "nodes": [
    {
      "children": [
        1
      ],
      "matrix": [
        1.0,
        0.0,
        0.0,
        0.0,
        0.0,
        2.220446049250313e-16,
        -1.0,
        0.0,
        0.0,
        1.0,
        2.220446049250313e-16,
        0.0,
        0.0,
        0.0,
        0.0,
        1.0
      ],
      "name": "Sketchfab_model"
    },
    {
      "children": [
        2
      ],
      "name": "root"
    },
    {
      "children": [
        3
      ],
      "matrix": [
        1.0,
        0.0,
        0.0,
        0.0,
        0.0,
        2.220446049250313e-16,
        1.0,
        0.0,
        0.0,
        -1.0,
        2.220446049250313e-16,
        0.0,
        0.0,
        0.0,
        0.0,
        1.0
      ],
      "name": "GLTF_SceneRootNode"
    },
    {
      "children": [
        4,
        7,
        10,
        13,
        16,
        19
      ],
      "matrix": [
        3.1388089656829834,
        0.0,
        0.0,
        0.0,
        0.0,
        3.1388089656829834,
        0.0,
        0.0,
        0.0,
        0.0,
        3.1388089656829834,
        0.0,
        0.0,
        0.0,
        0.0,
        1.0
      ],
      "name": "Armature_7"
    },
    {
      "children": [
        5,
        6
      ],
      "matrix": [
        0.25075643631483996,
        -6.346390761526587e-09,
        -0.1965253002765354,
        0.0,
        0.17015179168450786,
        -1.8966406516095537e-09,
        0.21710516078772024,
        0.0,
        -6.346390761526587e-09,
        -0.3185921907424926,
        2.1906197394933967e-09,
        0.0,
        -1.3533304929733276,
        -1.3074039220809937,
        0.9743921160697937,
        1.0
      ],
      "name": "Leg_0"
    },
    {
      "mesh": 0,
      "name": "Object_5"
    },
    {
      "mesh": 1,
      "name": "Object_6"
    },
    {
      "children": [
        8,
        9
      ],
      "matrix": [
        0.3462792932987213,
        0.0,
        0.0,
        0.0,
        0.0,
        0.3185921907424927,
        0.0,
        0.0,
        0.0,
        0.0,
        0.5716534852981567,
        0.0,
        0.0,
        -1.4278186559677124,
        0.0,
        1.0
      ],
      "name": "Rocket_Bottom_1"
    },
    {
      "mesh": 2,
      "name": "Object_8"
    },
    {
      "mesh": 3,
      "name": "Object_9"
    },
    {
      "children": [
        11,
        12
      ],
      "matrix": [
        0.3529643416404724,
        0.0,
        0.0,
        0.0,
        0.0,
        0.3799704313278198,
        0.0,
        0.0,
        0.0,
        0.0,
        0.7554020285606384,
        0.0,
        0.0,
        -1.0240397453308105,
        0.0,
        1.0
      ],
      "name": "Rocket_Middle_2"
    },
    {
      "mesh": 4,
      "name": "Object_11"
    },
    {
      "mesh": 5,
      "name": "Object_12"
    },
    {
      "children": [
        14,
        15
      ],
      "matrix": [
        1.135658621788025,
        0.0,
        0.0,
        0.0,
        0.0,
        1.8520032167434692,
        0.0,
        0.0,
        0.0,
        0.0,
        1.0789273977279663,
        0.0,
        0.0,
        0.7772700190544128,
        0.0,
        1.0
      ],
      "name": "Rocket_Top_3"
    },
    {
      "mesh": 6,
      "name": "Object_14"
    },
    {
      "mesh": 7,
      "name": "Object_15"
    },
    {
      "children": [
        17,
        18
      ],
      "matrix": [
        0.43598672747612,
        0.0,
        0.0,
        0.0,
        0.0,
        0.031198545967875437,
        0.43486906449144175,
        0.0,
        0.0,
        -0.43486906449144175,
        0.031198545967875437,
        0.0,
        0.0,
        0.176187664270401,
        1.0381650924682617,
        1.0
      ],
      "name": "Window_4"
    },
    {
      "mesh": 8,
      "name": "Object_17"
    },
    {
      "mesh": 9,
      "name": "Object_18"
    },
    {
      "children": [
        20,
        21
      ],
      "matrix": [
        0.3119812067817238,
        0.0007679954855682069,
        0.00302198395720588,
        0.0,
        -0.003112434065177724,
        0.09483708720948412,
        0.2972174881007085,
        0.0,
        -0.00018697137049324673,
        -0.2972327920362069,
        0.09484001249025523,
        0.0,
        0.0,
        1.2396057844161987,
        0.8240165114402771,
        1.0
      ],
      "name": "Window.001_5"
    },
    {
      "mesh": 10,
      "name": "Object_20"
    },
    {
      "mesh": 11,
      "name": "Object_21"
    }
  ],
  "samplers": [
    {
      "magFilter": 9729,
      "minFilter": 9987,
      "wrapS": 10497,
      "wrapT": 10497
    }
  ],
  "scene": 0,
  "scenes": [
    {
      "name": "Sketchfab_Scene",
      "nodes": [
        0
      ]
    }
  ],
  "textures": [
    {
      "sampler": 0,
      "source": 0
    },
    {
      "sampler": 0,
      "source": 1
    },
    {
      "sampler": 0,
      "source": 2
    },
    {
      "sampler": 0,
      "source": 3
    }
  ]
}
