{
  "accessors": [
    {
      "bufferView": 2,
      "componentType": 5126,
      "count": 4595,
      "max": [
        1.1294012069702148,
        3.0614233016967773,
        1.2822093963623047
      ],
      "min": [
        -1.1294012069702148,
        -0.0014165639877319336,
        -0.9039307236671448
      ],
      "type": "VEC3"
    },
    {
      "bufferView": 2,
      "byteOffset": 55140,
      "componentType": 5126,
      "count": 4595,
      "max": [
        0.9999805688858032,
        0.9999960064888,
        0.9999963045120239
      ],
      "min": [
        -0.9999805688858032,
        -1.0,
        -0.9999966621398926
      ],
      "type": "VEC3"
    },
    {
      "bufferView": 1,
      "componentType": 5126,
      "count": 4595,
      "max": [
        0.9909160137176514,
        0.9934296607971191
      ],
      "min": [
        0.006569371558725834,
        0.006568431854248047
      ],
      "type": "VEC2"
    },
    {
      "bufferView": 0,
      "componentType": 5125,
      "count": 24468,
      "type": "SCALAR"
    },
    {
      "bufferView": 2,
      "byteOffset": 110280,
      "componentType": 5126,
      "count": 4595,
      "max": [
        1.1393859386444092,
        3.071401357650757,
        1.2922016382217407
      ],
      "min": [
        -1.1393859386444092,
        -0.011416563764214516,
        -0.9139226675033569
      ],
      "type": "VEC3"
    },
    {
      "bufferView": 2,
      "byteOffset": 165420,
      "componentType": 5126,
      "count": 4595,
      "max": [
        0.9999385476112366,
        1.0,
        0.999997079372406
      ],
      "min": [
        -0.9999385476112366,
        -0.9999959468841553,
        -0.9999967813491821
      ],
      "type": "VEC3"
    },
    {
      "bufferView": 1,
      "byteOffset": 36760,
      "componentType": 5126,
      "count": 4595,
      "max": [
        0.9909160137176514,
        0.9934296607971191
      ],
      "min": [
        0.006569371558725834,
        0.006568431854248047
      ],
      "type": "VEC2"
    },
    {
      "bufferView": 0,
      "byteOffset": 97872,
      "componentType": 5125,
      "count": 24468,
      "type": "SCALAR"
    }
  ],
  "asset": {
    "extras": {
      "author": "hugannh3 (https://sketchfab.com/hugannh3)",
      "license": "CC-BY-4.0 (http://creativecommons.org/licenses/by/4.0/)",
      "source": "https://sketchfab.com/3d-models/banana-duck-meme-c5c5b3178ebf448c899092a742f8dcda",
      "title": "Banana duck meme"
    },
    "generator": "Sketchfab-16.60.0",
    "version": "2.0"
  },
  "bufferViews": [
    {
      "buffer": 0,
      "byteLength": 195744,
      "name": "floatBufferViews",
      "target": 34963
    },
    {
      "buffer": 0,
      "byteLength": 73520,
      "byteOffset": 195744,
      "byteStride": 8,
      "name": "floatBufferViews",
      "target": 34962
    },
    {
      "buffer": 0,
      "byteLength": 220560,
      "byteOffset": 269264,
      "byteStride": 12,
      "name": "floatBufferViews",
      "target": 34962
    }
  ],
  "buffers": [
    {
      "byteLength": 489824,
      "uri": "scene.bin"
    }
  ],
  "extensionsUsed": [
    "KHR_materials_unlit"
  ],
  "images": [
    {
      "uri": "textures/11_bananaduck_baseColor.png"
    }
  ],
  "materials": [
    {
      "doubleSided": true,
      "extensions": {
        "KHR_materials_unlit": {}
      },
      "name": "11_bananaduck",
      "pbrMetallicRoughness": {
        "baseColorTexture": {
          "index": 0
        },
        "metallicFactor": 0.0
      }
    },
    {
      "emissiveFactor": [
        0.0110876,
        0.00121371,
        0.0042548800000000025
      ],
      "extensions": {
        "KHR_materials_unlit": {}
      },
      "name": "material",
      "pbrMetallicRoughness": {
        "baseColorFactor": [
          0.020742511621608114,
          0.008793508758938022,
          0.003938053493195301,
          1.0
        ],
        "metallicFactor": 0.0
      }
    }
  ],
  "meshes": [
    {
      "name": "Object_0",
      "primitives": [
        {
          "attributes": {
            "NORMAL": 1,
            "POSITION": 0,
            "TEXCOORD_0": 2
          },
          "indices": 3,
          "material": 0,
          "mode": 4
        }
      ]
    },
    {
      "name": "Object_1",
      "primitives": [
        {
          "attributes": {
            "NORMAL": 5,
            "POSITION": 4,
            "TEXCOORD_0": 6
          },
          "indices": 7,
          "material": 1,
          "mode": 4
        }
      ]
    }
  ],
  "nodes": [
    {
      "children": [
        1
      ],
      "matrix": [
        1.0,
        0.0,
        0.0,
        0.0,
        0.0,
        2.220446049250313e-16,
        -1.0,
        0.0,
        0.0,
        1.0,
        2.220446049250313e-16,
        0.0,
        0.0,
        0.0,
        0.0,
        1.0
      ],
      "name": "Sketchfab_model"
    },
    {
      "children": [
        2
      ],
      "name": "root"
    },
    {
      "children": [
        3
      ],
      "matrix": [
        1.0,
        0.0,
        0.0,
        0.0,
        0.0,
        2.220446049250313e-16,
        1.0,
        0.0,
        0.0,
        -1.0,
        2.220446049250313e-16,
        0.0,
        0.0,
        0.0,
        0.0,
        1.0
      ],
      "name": "GLTF_SceneRootNode"
    },
    {
      "children": [
        4,
        5
      ],
      "name": "11_bananapeel_4_0"
    },
    {
      "mesh": 0,
      "name": "Object_4"
    },
    {
      "mesh": 1,
      "name": "Object_5"
    }
  ],
  "samplers": [
    {
      "magFilter": 9729,
      "minFilter": 9987,
      "wrapS": 10497,
      "wrapT": 10497
    }
  ],
  "scene": 0,
  "scenes": [
    {
      "name": "Sketchfab_Scene",
      "nodes": [
        0
      ]
    }
  ],
  "textures": [
    {
      "sampler": 0,
      "source": 0
    }
  ]
}
